<?xml version="1.0" encoding="iso-8859-1"?>
<!-- Generator: Adobe Illustrator 19.0.0, SVG Export Plug-In . SVG Version: 6.00 Build 0)  -->
<svg version="1.1" id="Layer_1" xmlns="http://www.w3.org/2000/svg" xmlns:xlink="http://www.w3.org/1999/xlink" x="0px" y="0px"
	 viewBox="0 0 512 512" style="enable-background:new 0 0 512 512;" xml:space="preserve">
<g transform="translate(1 1)">
	<path style="fill:#FFFFFF;" d="M24.6,437.187h25.6V249.453H24.6V437.187z"/>
	<g>
		<path style="fill:#FD9808;" d="M459.8,437.187h25.6V249.453h-25.6V437.187z"/>
		<path style="fill:#FD9808;" d="M476.867,249.453h25.6V215.32h-25.6V249.453z"/>
	</g>
	<g>
		<path style="fill:#FFFFFF;" d="M7.533,249.453h25.6V215.32h-25.6V249.453z"/>
		<path style="fill:#FFFFFF;" d="M24.6,488.387h17.067v-51.2H24.6V488.387z"/>
	</g>
	<g>
		<path style="fill:#FCC309;" d="M41.667,488.387h17.067v-51.2H41.667V488.387z"/>
		<path style="fill:#FCC309;" d="M451.267,488.387h17.067v-51.2h-17.067V488.387z"/>
	</g>
	<path style="fill:#FD9808;" d="M468.333,488.387H485.4v-51.2h-17.067V488.387z"/>
	<g>
		<path style="fill:#FFDD09;" d="M41.667,437.187h426.667V249.453H41.667V437.187z"/>
		<path style="fill:#FFDD09;" d="M33.133,249.453h443.733V215.32H33.133V249.453z"/>
		<path style="fill:#FFDD09;" d="M485.4,215.32h-68.267v-17.067c0-9.387,7.68-17.067,17.067-17.067h34.133
			c9.387,0,17.067,7.68,17.067,17.067V215.32z"/>
		<path style="fill:#FFDD09;" d="M441.88,189.72c-0.853,0-1.707,0-3.413-0.853c-4.267-1.707-6.827-6.827-5.12-11.093L467.48,92.44
			c1.707-4.267,6.827-6.827,11.093-5.12s6.827,6.827,5.12,11.093l-34.133,85.333C448.707,188.013,445.293,189.72,441.88,189.72z"/>
		<path style="fill:#FFDD09;" d="M476.013,104.387c-2.56,0-4.267-0.853-5.973-2.56l-58.88-64.853
			c-3.413-3.413-2.56-8.533,0.853-11.947c3.413-3.413,8.533-2.56,11.947,0.853l58.88,64.853c3.413,3.413,2.56,8.533-0.853,11.947
			C480.28,103.533,477.72,104.387,476.013,104.387z"/>
		<path style="fill:#FFDD09;" d="M426.52,72.813l-15.36,15.36L369.347,46.36L384.707,31c11.947-11.947,30.72-11.947,42.667,0
			S438.467,61.72,426.52,72.813"/>
	</g>
	<path style="fill:#1CD759;" d="M127,215.32H24.6c-9.387,0-17.067-7.68-17.067-17.067s7.68-17.067,17.067-17.067H127
		C115.907,190.573,115.907,205.933,127,215.32"/>
	<path style="fill:#54C9FD;" d="M144.067,181.187h-102.4c-9.387,0-17.067-7.68-17.067-17.067s7.68-17.067,17.067-17.067h102.4
		C132.973,156.44,132.973,171.8,144.067,181.187"/>
	<path style="fill:#FCC309;" d="M378.733,394.52H105.667c-17.067,0-29.867-12.8-29.867-29.013v-43.52
		c0-16.213,12.8-29.867,29.867-29.867h273.92c16.213,0,29.867,12.8,29.867,29.867v43.52C408.6,381.72,395.8,394.52,378.733,394.52"
		/>
	<path style="fill:#FD9808;" d="M404.333,292.12h-25.6c16.213,0,29.867,12.8,29.867,29.867v43.52
		c0,16.213-12.8,29.867-29.867,29.867h25.6c16.213,0,29.867-12.8,29.867-29.867v-43.52C434.2,304.92,421.4,292.12,404.333,292.12"/>
	<path style="fill:#FCC309;" d="M331.8,215.32H178.2l14.507-151.893c0.853-10.24,6.827-19.627,16.213-26.453
		c8.533-6.827,19.627-9.387,30.72-9.387h36.693c8.533,0,17.92,1.707,25.6,6.827c10.24,6.827,17.067,17.067,17.92,29.013
		L331.8,215.32z"/>
	<path d="M485.4,445.72H24.6c-5.12,0-8.533-3.413-8.533-8.533V249.453c0-5.12,3.413-8.533,8.533-8.533h460.8
		c5.12,0,8.533,3.413,8.533,8.533v187.733C493.933,442.307,490.52,445.72,485.4,445.72z M33.133,428.653h443.733V257.987H33.133
		V428.653z"/>
	<path d="M58.733,496.92H24.6c-5.12,0-8.533-3.413-8.533-8.533v-51.2c0-5.12,3.413-8.533,8.533-8.533h34.133
		c5.12,0,8.533,3.413,8.533,8.533v51.2C67.267,493.507,63.853,496.92,58.733,496.92z M33.133,479.853H50.2V445.72H33.133V479.853z"
		/>
	<path d="M485.4,496.92h-34.133c-5.12,0-8.533-3.413-8.533-8.533v-51.2c0-5.12,3.413-8.533,8.533-8.533H485.4
		c5.12,0,8.533,3.413,8.533,8.533v51.2C493.933,493.507,490.52,496.92,485.4,496.92z M459.8,479.853h17.067V445.72H459.8V479.853z"
		/>
	<path d="M502.467,257.987H7.533c-5.12,0-8.533-3.413-8.533-8.533V215.32c0-5.12,3.413-8.533,8.533-8.533h494.933
		c5.12,0,8.533,3.413,8.533,8.533v34.133C511,254.573,507.587,257.987,502.467,257.987z M16.067,240.92h477.867v-17.067H16.067
		V240.92z"/>
	<path d="M127,223.853H24.6c-14.507,0-25.6-11.093-25.6-25.6s11.093-25.6,25.6-25.6H127c3.413,0,6.827,2.56,7.68,5.973
		c0.853,3.413,0,6.827-2.56,9.387c-3.413,2.56-5.12,6.827-5.12,10.24c0,4.267,1.707,7.68,5.12,10.24
		c2.56,2.56,3.413,5.973,2.56,9.387S130.413,223.853,127,223.853z M24.6,189.72c-5.12,0-8.533,3.413-8.533,8.533
		c0,5.12,3.413,8.533,8.533,8.533h86.187c-0.853-2.56-0.853-5.973-0.853-8.533s0.853-5.973,1.707-8.533H24.6z"/>
	<path d="M144.067,189.72h-102.4c-14.507,0-25.6-11.093-25.6-25.6c0-14.507,11.093-25.6,25.6-25.6h102.4
		c3.413,0,6.827,2.56,7.68,5.973s0,6.827-2.56,9.387c-3.413,2.56-5.12,6.827-5.12,10.24c0,4.267,1.707,7.68,5.12,10.24
		c2.56,2.56,3.413,5.973,2.56,9.387S147.48,189.72,144.067,189.72z M41.667,155.587c-5.12,0-8.533,3.413-8.533,8.533
		c0,5.12,3.413,8.533,8.533,8.533h86.187C127,170.093,127,166.68,127,164.12s0.853-5.973,1.707-8.533H41.667z"/>
	<path d="M331.8,223.853H178.2c-2.56,0-4.267-0.853-5.973-2.56c-1.707-1.707-2.56-4.267-2.56-6.827l14.507-151.893
		c0.853-11.947,7.68-23.893,19.627-32.427c9.387-6.827,21.333-11.093,34.987-11.093h36.693c11.947,0,22.187,3.413,30.72,8.533
		c12.8,8.533,20.48,21.333,22.187,34.987l11.947,151.893c0,2.56-0.853,5.12-2.56,6.827C336.067,223,334.36,223.853,331.8,223.853z
		 M187.587,206.787h134.827L311.32,64.28c-0.853-8.533-5.973-17.067-14.507-22.187c-5.973-4.267-12.8-5.973-21.333-5.973h-36.693
		c-6.827,0-17.067,1.707-25.6,7.68c-7.68,5.12-11.947,12.8-12.8,19.627L187.587,206.787z"/>
	<path d="M374.467,496.92c-5.12,0-8.533-3.413-8.533-8.533c0,0,0-0.853-0.853-1.707c-5.973-5.973-28.16-7.68-41.813-6.827l0,0
		c-33.28,0-56.32-6.827-68.267-20.48c-11.947,13.653-34.987,20.48-68.267,20.48c-13.653-0.853-35.84,0.853-41.813,6.827
		c-0.853,0.853-0.853,1.707-0.853,1.707c0,5.12-3.413,8.533-8.533,8.533S127,493.507,127,488.387s1.707-10.24,5.973-13.653
		c13.653-12.8,46.933-11.947,53.76-11.947c36.693,0,50.347-9.387,55.467-14.507c2.56-3.413,3.413-5.973,4.267-7.68
		c0-2.56,0-3.413,0-4.267c0.853-4.267,4.267-7.68,8.533-7.68c4.267,0,7.68,3.413,8.533,7.68c0,0,0,1.707,0,4.267
		c0,1.707,0.853,5.12,4.267,8.533c5.12,5.12,18.773,14.507,55.467,14.507c5.973,0,40.107-0.853,53.76,11.947
		C381.293,479,383,484.12,383,489.24C383,493.507,379.587,496.92,374.467,496.92z"/>
	<path d="M485.4,223.853h-68.267c-5.12,0-8.533-3.413-8.533-8.533v-17.067c0-14.507,11.947-25.6,25.6-25.6h34.133
		c14.507,0,25.6,11.947,25.6,25.6v17.067C493.933,220.44,490.52,223.853,485.4,223.853z M425.667,206.787h51.2v-8.533
		c0-5.12-4.267-8.533-8.533-8.533H434.2c-5.12,0-8.533,4.267-8.533,8.533V206.787z"/>
	<path d="M451.267,189.72c-0.853,0-1.707,0-3.413-0.853c-4.267-1.707-6.827-6.827-5.12-11.093l34.133-85.333
		c1.707-4.267,6.827-6.827,11.093-5.12s6.827,6.827,5.12,11.093l-34.133,85.333C458.093,188.013,454.68,189.72,451.267,189.72z"/>
	<path d="M485.4,104.387c-2.56,0-4.267-0.853-5.973-2.56l-58.88-64.853c-3.413-4.267-3.413-9.387,0.853-12.8
		c3.413-3.413,8.533-2.56,11.947,0.853l58.88,64.853c3.413,3.413,2.56,8.533-0.853,11.947
		C489.667,103.533,487.107,104.387,485.4,104.387z"/>
	<path d="M412.013,96.707c-2.56,0-4.267-0.853-5.973-2.56L363.373,51.48c-3.413-3.413-3.413-8.533,0-11.947l15.36-15.36
		c6.827-7.68,17.067-11.093,27.307-11.093c10.24,0,19.627,4.267,27.307,11.093c7.68,7.68,11.093,17.067,11.093,27.307
		s-4.267,19.627-11.093,27.307l-15.36,15.36C416.28,95.853,413.72,96.707,412.013,96.707z M381.293,45.507l29.867,29.867
		l9.387-9.387l0,0c4.267-4.267,5.973-9.387,5.973-15.36s-2.56-11.093-5.973-15.36c-7.68-7.68-22.187-7.68-29.867,0L381.293,45.507z"
		/>
	<path d="M404.333,403.053H105.667c-21.333,0-38.4-17.067-38.4-37.547v-43.52c0-21.333,17.067-38.4,38.4-38.4h299.52
		c21.333,0,38.4,17.067,38.4,38.4v43.52C442.733,385.987,425.667,403.053,404.333,403.053z M105.667,300.653
		c-11.947,0-21.333,9.387-21.333,21.333v43.52c0,11.947,9.387,21.333,21.333,21.333h299.52c11.947,0,21.333-9.387,21.333-21.333
		v-43.52c0-11.947-9.387-21.333-21.333-21.333H105.667z"/>
</g>
<g>
</g>
<g>
</g>
<g>
</g>
<g>
</g>
<g>
</g>
<g>
</g>
<g>
</g>
<g>
</g>
<g>
</g>
<g>
</g>
<g>
</g>
<g>
</g>
<g>
</g>
<g>
</g>
<g>
</g>
</svg>
