<svg width="128px" height="128px" viewBox="0 0 128 128" xmlns="http://www.w3.org/2000/svg" xmlns:xlink="http://www.w3.org/1999/xlink" aria-hidden="true" role="img" class="iconify iconify--noto" preserveAspectRatio="xMidYMid meet"><linearGradient id="IconifyId17ecdb2904d178eab8239" gradientUnits="userSpaceOnUse" x1="34" y1="4.703" x2="34" y2="60.23" gradientTransform="matrix(1 0 0 -1 0 128)"><stop offset="0" stop-color="#4d7d23"></stop><stop offset="1" stop-color="#67b730"></stop></linearGradient><path d="M42.94 66.62c-3.05-.53-6.06-.77-9.02-.77c-4.52 0-8.91.57-13.06 1.55C14.05 69.02 7.84 72.23 4 77.03V124h60V88.4c0-12.28-9.18-19.73-21.06-21.78z" fill="url(#IconifyId17ecdb2904d178eab8239)"></path><path d="M56.36 53.72c-.82-1.49.23-3.01 2.01-4.88c2.83-2.98 5.9-9.89 3.05-16.9c.02-.04-.56-1.22-.55-1.26l-1.18-.06c-.38-.05-13.3-.08-26.23-.08s-25.85.03-26.23.08c0 0-1.74 1.28-1.72 1.32c-2.86 7.02.22 13.92 3.05 16.9c1.78 1.88 2.82 3.39 2.01 4.88c-.79 1.45-3.16 1.66-3.16 1.66s.55 1.48 1.86 2.28c1.22.74 2.71.91 3.74.94c0 0 4.04 5.59 14.59 5.59h11.74c10.55 0 14.59-5.59 14.59-5.59c1.03-.02 2.53-.2 3.74-.94c1.31-.8 1.86-2.28 1.86-2.28s-2.37-.21-3.17-1.66z" fill="#543930"></path><radialGradient id="IconifyId17ecdb2904d178eab8240" cx="135.724" cy="2.93" r="15.369" gradientTransform="matrix(1 0 0 -.4912 -92.695 56.67)" gradientUnits="userSpaceOnUse"><stop offset=".728" stop-color="#6d4c41" stop-opacity="0"></stop><stop offset="1" stop-color="#6d4c41"></stop></radialGradient><path d="M33.45 64.18v-6.2L52.2 56.5l1.71 2.1s-4.04 5.59-14.59 5.59l-5.87-.01z" fill="url(#IconifyId17ecdb2904d178eab8240)"></path><radialGradient id="IconifyId17ecdb2904d178eab8241" cx="127.535" cy="59.683" r="4.542" gradientTransform="matrix(-.9057 .4238 .3144 .6719 154.919 -41.21)" gradientUnits="userSpaceOnUse"><stop offset=".663" stop-color="#6d4c41"></stop><stop offset="1" stop-color="#6d4c41" stop-opacity="0"></stop></radialGradient><path d="M53.87 55.89c-2.81-4.27 3.42-5.86 3.42-5.86h.01c-1.08 1.35-1.58 2.52-.94 3.68c.79 1.45 3.16 1.66 3.16 1.66s-3.23 2.87-5.65.52z" fill="url(#IconifyId17ecdb2904d178eab8241)"></path><radialGradient id="IconifyId17ecdb2904d178eab8242" cx="121.104" cy="27.418" r="19.95" gradientTransform="matrix(-.0746 -.9972 -.8311 .0622 78.222 159.159)" gradientUnits="userSpaceOnUse"><stop offset=".725" stop-color="#6d4c41" stop-opacity="0"></stop><stop offset="1" stop-color="#6d4c41"></stop></radialGradient><path d="M61.43 31.93c2.79 6.79-.15 13.79-2.89 16.74c-.38.41-1.98 1.98-2.34 3.23c0 0-6.26-8.73-8.13-13.87c-.38-1.04-.72-2.1-.77-3.2c-.03-.83.09-1.81.57-2.51c.58-.86 13.23-1.11 13.23-1.11c-.01 0 .33.72.33.72z" fill="url(#IconifyId17ecdb2904d178eab8242)"></path><radialGradient id="IconifyId17ecdb2904d178eab8243" cx="15.363" cy="20.246" r="19.95" gradientTransform="matrix(.0746 -.9972 .8311 .0622 2.562 54.157)" gradientUnits="userSpaceOnUse"><stop offset=".725" stop-color="#6d4c41" stop-opacity="0"></stop><stop offset="1" stop-color="#6d4c41"></stop></radialGradient><path d="M5.5 31.93c-2.78 6.79.15 13.79 2.9 16.74c.38.41 1.98 1.98 2.34 3.23c0 0 6.26-8.73 8.13-13.87c.38-1.04.72-2.1.77-3.2c.03-.83-.09-1.81-.57-2.51c-.58-.86-1.27-.63-2.26-.63c-1.89 0-10.16-.48-10.81-.48c.01 0-.5.72-.5.72z" fill="url(#IconifyId17ecdb2904d178eab8243)"></path><radialGradient id="IconifyId17ecdb2904d178eab8244" cx="36.425" cy="2.93" r="15.369" gradientTransform="matrix(-1 0 0 -.4912 60.327 56.67)" gradientUnits="userSpaceOnUse"><stop offset=".728" stop-color="#6d4c41" stop-opacity="0"></stop><stop offset="1" stop-color="#6d4c41"></stop></radialGradient><path d="M33.48 64.18v-6.2L14.73 56.5l-1.71 2.1s4.04 5.59 14.59 5.59l5.87-.01z" fill="url(#IconifyId17ecdb2904d178eab8244)"></path><radialGradient id="IconifyId17ecdb2904d178eab8245" cx="16.812" cy="63.108" r="4.542" gradientTransform="matrix(.9057 .4238 -.3144 .6719 13.378 3.416)" gradientUnits="userSpaceOnUse"><stop offset=".663" stop-color="#6d4c41"></stop><stop offset="1" stop-color="#6d4c41" stop-opacity="0"></stop></radialGradient><path d="M13.06 55.89c2.81-4.27-3.42-5.86-3.42-5.86h-.01c1.08 1.35 1.58 2.52.94 3.68c-.79 1.45-3.16 1.66-3.16 1.66s3.23 2.87 5.65.52z" fill="url(#IconifyId17ecdb2904d178eab8245)"></path><path d="M33.46 74.12c-3.87 0-7-3.13-7-7V60.7h14v6.42c0 3.87-3.14 7-7 7z" fill="#e59600"></path><linearGradient id="IconifyId17ecdb2904d178eab8246" gradientUnits="userSpaceOnUse" x1="8.633" y1="3.336" x2="7.46" y2="30.521" gradientTransform="matrix(1 0 0 -1 0 128)"><stop offset=".604" stop-color="#ffca28"></stop><stop offset="1" stop-color="#ffb300"></stop></linearGradient><path fill="url(#IconifyId17ecdb2904d178eab8246)" d="M4 96v28h8V96z"></path><path d="M51.48 34.74H15.43c-3.89 0-7.07 3.39-7.07 7.53s3.18 7.53 7.07 7.53h36.05c3.89 0 7.07-3.39 7.07-7.53s-3.18-7.53-7.07-7.53z" fill="#e59600"></path><path d="M33.46 8.11c-11.48 0-22.11 12.28-22.11 29.94c0 17.57 10.95 26.26 22.11 26.26s22.11-8.69 22.11-26.26c0-17.66-10.63-29.94-22.11-29.94z" fill="#ffca28"></path><path d="M39.01 51.54c-2.1 1.25-8.99 1.25-11.09 0c-1.21-.72-2.44.38-1.94 1.48c.49 1.08 4.25 3.58 7.5 3.58s6.96-2.5 7.45-3.58c.51-1.1-.71-2.2-1.92-1.48z" fill="#795548"></path><path d="M36 46.2a.537.537 0 0 0-.21-.05h-4.67c-.07.01-.14.03-.21.05c-.42.17-.66.61-.45 1.08c.2.47 1.13 1.78 3 1.78s2.8-1.31 3-1.78c.2-.47-.03-.91-.46-1.08z" fill="#e59600"></path><g fill="#404040"><ellipse cx="22.62" cy="40.17" rx="3.25" ry="3.37"></ellipse><ellipse cx="44.3" cy="40.17" rx="3.25" ry="3.37"></ellipse></g><g fill="#6d4c41"><path d="M39.53 34.45c.62-.83 2.07-2.03 4.87-2.03s4.25 1.2 4.87 2.03c.28.37.21.79.02 1.04c-.18.24-.7.46-1.28.26c-.58-.2-1.71-.78-3.6-.8c-1.89.01-3.03.6-3.6.8c-.58.2-1.1-.02-1.28-.26a.823.823 0 0 1 0-1.04z"></path><path d="M17.65 34.45c.62-.83 2.07-2.03 4.87-2.03c2.8 0 4.25 1.2 4.87 2.03c.28.37.21.79.02 1.04c-.18.24-.7.46-1.28.26c-.58-.2-1.71-.78-3.6-.8c-1.89.01-3.03.6-3.6.8c-.58.2-1.1-.02-1.28-.26a.85.85 0 0 1 0-1.04z"></path></g><path d="M59.76 17.8c-1.6-2.43-5.19-5.67-8.41-5.89c-.52-3.1-3.83-5.72-7.04-6.74c-8.69-2.75-14.34.33-17.38 1.99c-.63.34-4.7 2.6-7.56.98c-1.79-1.02-1.75-3.76-1.75-3.76s-5.6 2.13-3.68 8.07c-1.92.08-4.44.89-5.78 3.59c-1.59 3.21-1.02 5.9-.56 7.19c-1.65 1.4-3.73 4.39-2.31 8.27c1.07 2.92 5.36 4.26 5.36 4.26c-.3 5.26.68 8.49 1.2 9.8c.09.23.42.21.48-.03c.65-2.6 2.86-11.68 2.64-13.26c0 0 7.45-1.48 14.55-6.71c1.45-1.06 3.01-1.97 4.68-2.64c8.92-3.55 10.79 2.51 10.79 2.51s6.18-1.19 8.05 7.4c.7 3.22 1.18 8.37 1.57 11.97c.03.26.37.31.48.07c.63-1.43 1.87-4.27 2.17-7.16c.1-1.02 2.85-2.36 4.03-6.73c1.57-5.83-.37-11.43-1.53-13.18z" fill="#543930"></path><radialGradient id="IconifyId17ecdb2904d178eab8247" cx="52.628" cy="23.285" r="23.385" gradientTransform="matrix(.3076 .9515 -.706 .2282 45.534 -25.818)" gradientUnits="userSpaceOnUse"><stop offset=".699" stop-color="#6d4c41" stop-opacity="0"></stop><stop offset="1" stop-color="#6d4c41"></stop></radialGradient><path d="M57.23 37.74c.1-1.02 2.85-2.36 4.03-6.73c.13-.46.23-.94.33-1.41c.96-5.31-.76-10.18-1.83-11.8c-1.48-2.24-4.66-5.18-7.68-5.78c-.26-.03-.52-.06-.76-.08c0 0 .21 1.41-.36 2.54c-.74 1.46-2.24 1.8-2.24 1.8c7.87 7.85 7.3 14.43 8.51 21.46z" fill="url(#IconifyId17ecdb2904d178eab8247)"></path><radialGradient id="IconifyId17ecdb2904d178eab8248" cx="23.178" cy="6.821" r="6.131" gradientTransform="matrix(.8813 .4726 -.5603 1.045 5.881 -14.007)" gradientUnits="userSpaceOnUse"><stop offset=".58" stop-color="#6d4c41"></stop><stop offset="1" stop-color="#6d4c41" stop-opacity="0"></stop></radialGradient><path d="M28.83 6.17c-.72.35-1.35.69-1.9.99c-.63.34-4.7 2.6-7.56.98c-1.75-1-1.75-3.66-1.75-3.76c-.81 1.03-3.25 8.39 3.89 8.88c3.08.21 4.98-2.47 6.1-4.75c.41-.82 1.05-2.02 1.22-2.34z" fill="url(#IconifyId17ecdb2904d178eab8248)"></path><radialGradient id="IconifyId17ecdb2904d178eab8249" cx="163.574" cy="88.621" r="18.849" gradientTransform="matrix(-.9378 -.3944 .2182 -.5285 170.255 126.553)" gradientUnits="userSpaceOnUse"><stop offset=".699" stop-color="#6d4c41" stop-opacity="0"></stop><stop offset="1" stop-color="#6d4c41"></stop></radialGradient><path d="M43.41 4.91c4.8 1.3 7.15 3.74 7.93 7.01c.23.96.5 9.9-16.56-.26c-6.35-3.78-4.61-6.14-3.87-6.41c2.9-1.06 7.11-1.8 12.5-.34z" fill="url(#IconifyId17ecdb2904d178eab8249)"></path><radialGradient id="IconifyId17ecdb2904d178eab8250" cx="20.023" cy="9.361" r="5.628" gradientTransform="matrix(1 0 0 1.2233 0 -1.784)" gradientUnits="userSpaceOnUse"><stop offset=".702" stop-color="#6d4c41" stop-opacity="0"></stop><stop offset="1" stop-color="#6d4c41"></stop></radialGradient><path d="M17.6 4.39c-.01 0-.02.01-.04.02c-.61.26-5.41 2.48-3.62 8.04l5.11.82c-4.52-4.58-1.43-8.89-1.43-8.89s-.01 0-.02.01z" fill="url(#IconifyId17ecdb2904d178eab8250)"></path><radialGradient id="IconifyId17ecdb2904d178eab8251" cx="33.36" cy="7.122" r="10.555" gradientTransform="matrix(-.9657 -.2598 .2432 -.9037 49.732 34.705)" gradientUnits="userSpaceOnUse"><stop offset=".66" stop-color="#6d4c41" stop-opacity="0"></stop><stop offset="1" stop-color="#6d4c41"></stop></radialGradient><path d="M17.1 12.96l-3.15-.51c-.12 0-.54.04-.77.07c-1.78.25-3.87 1.17-5 3.52c-1.22 2.53-1.19 4.71-.86 6.16c.1.49.29 1.03.29 1.03s1.57-1.48 5.28-1.58l4.21-8.69z" fill="url(#IconifyId17ecdb2904d178eab8251)"></path><radialGradient id="IconifyId17ecdb2904d178eab8252" cx="17.992" cy="28.116" r="11.082" gradientTransform="matrix(.9907 .1363 -.1915 1.3921 4.307 -11.8)" gradientUnits="userSpaceOnUse"><stop offset=".598" stop-color="#6d4c41" stop-opacity="0"></stop><stop offset="1" stop-color="#6d4c41"></stop></radialGradient><path d="M7.45 23.35c-1.55 1.38-3.65 4.46-2.11 8.27c1.16 2.88 5.31 4.13 5.31 4.13c0 .01.83.26 1.26.26l.97-14.37c-1.99 0-3.9.6-5.13 1.45c.01.04-.31.24-.3.26z" fill="url(#IconifyId17ecdb2904d178eab8252)"></path><g><linearGradient id="IconifyId17ecdb2904d178eab8253" gradientUnits="userSpaceOnUse" x1="94" y1="61.444" x2="94" y2="5.917" gradientTransform="matrix(1 0 0 -1 0 128)"><stop offset=".366" stop-color="#f78c1f"></stop><stop offset=".672" stop-color="#f47f12"></stop><stop offset="1" stop-color="#ef6c00"></stop></linearGradient><path d="M102.94 66.62c-3.05-.53-6.06-.77-9.02-.77c-4.53 0-8.91.57-13.06 1.55c-6.81 1.62-13.02 4.83-16.86 9.63V124h60V88.4c0-12.28-9.18-19.73-21.06-21.78z" fill="url(#IconifyId17ecdb2904d178eab8253)"></path></g><g><path d="M116.36 53.72c-.82-1.49.23-3.01 2.01-4.88c2.83-2.98 5.9-9.89 3.05-16.9c.02-.04-.56-1.22-.55-1.26l-1.18-.06c-.38-.05-13.3-.08-26.23-.08s-25.85.03-26.23.08c0 0-1.74 1.28-1.72 1.32c-2.86 7.02.22 13.92 3.05 16.9c1.78 1.88 2.82 3.39 2.01 4.88c-.79 1.45-3.16 1.66-3.16 1.66s.55 1.48 1.86 2.28c1.22.74 2.71.91 3.74.94c0 0 4.04 5.59 14.59 5.59h11.74c10.55 0 14.59-5.59 14.59-5.59c1.03-.02 2.53-.2 3.74-.94c1.31-.8 1.86-2.28 1.86-2.28s-2.37-.21-3.17-1.66z" fill="#543930"></path><radialGradient id="IconifyId17ecdb2904d178eab8254" cx="195.724" cy="2.93" r="15.369" gradientTransform="matrix(1 0 0 -.4912 -92.695 56.67)" gradientUnits="userSpaceOnUse"><stop offset=".728" stop-color="#6d4c41" stop-opacity="0"></stop><stop offset="1" stop-color="#6d4c41"></stop></radialGradient><path d="M93.45 64.18v-6.2l18.75-1.48l1.71 2.1s-4.04 5.59-14.59 5.59l-5.87-.01z" fill="url(#IconifyId17ecdb2904d178eab8254)"></path><radialGradient id="IconifyId17ecdb2904d178eab8255" cx="73.187" cy="93.963" r="4.542" gradientTransform="matrix(-.9057 .4238 .3144 .6719 154.919 -41.21)" gradientUnits="userSpaceOnUse"><stop offset=".663" stop-color="#6d4c41"></stop><stop offset="1" stop-color="#6d4c41" stop-opacity="0"></stop></radialGradient><path d="M113.87 55.89c-2.81-4.27 3.42-5.86 3.42-5.86h.01c-1.08 1.35-1.58 2.52-.94 3.68c.79 1.45 3.16 1.66 3.16 1.66s-3.23 2.87-5.65.52z" fill="url(#IconifyId17ecdb2904d178eab8255)"></path><radialGradient id="IconifyId17ecdb2904d178eab8256" cx="116.626" cy="-44.373" r="19.95" gradientTransform="matrix(-.0746 -.9972 -.8311 .0622 78.222 159.159)" gradientUnits="userSpaceOnUse"><stop offset=".725" stop-color="#6d4c41" stop-opacity="0"></stop><stop offset="1" stop-color="#6d4c41"></stop></radialGradient><path d="M121.43 31.93c2.79 6.79-.15 13.79-2.89 16.74c-.38.41-1.98 1.98-2.34 3.23c0 0-6.26-8.73-8.13-13.87c-.38-1.04-.72-2.1-.77-3.2c-.03-.83.09-1.81.57-2.51c.58-.86 13.23-1.11 13.23-1.11c-.01 0 .33.72.33.72z" fill="url(#IconifyId17ecdb2904d178eab8256)"></path><radialGradient id="IconifyId17ecdb2904d178eab8257" cx="19.841" cy="92.038" r="19.95" gradientTransform="matrix(.0746 -.9972 .8311 .0622 2.562 54.157)" gradientUnits="userSpaceOnUse"><stop offset=".725" stop-color="#6d4c41" stop-opacity="0"></stop><stop offset="1" stop-color="#6d4c41"></stop></radialGradient><path d="M65.5 31.93c-2.79 6.79.15 13.79 2.89 16.74c.38.41 1.98 1.98 2.34 3.23c0 0 6.26-8.73 8.13-13.87c.38-1.04.72-2.1.77-3.2c.03-.83-.09-1.81-.57-2.51c-.58-.86-1.27-.63-2.26-.63c-1.89 0-10.16-.48-10.81-.48c.02 0-.49.72-.49.72z" fill="url(#IconifyId17ecdb2904d178eab8257)"></path><radialGradient id="IconifyId17ecdb2904d178eab8258" cx="-23.576" cy="2.93" r="15.369" gradientTransform="matrix(-1 0 0 -.4912 60.327 56.67)" gradientUnits="userSpaceOnUse"><stop offset=".728" stop-color="#6d4c41" stop-opacity="0"></stop><stop offset="1" stop-color="#6d4c41"></stop></radialGradient><path d="M93.48 64.18v-6.2L74.73 56.5l-1.71 2.1s4.04 5.59 14.59 5.59l5.87-.01z" fill="url(#IconifyId17ecdb2904d178eab8258)"></path><radialGradient id="IconifyId17ecdb2904d178eab8259" cx="71.16" cy="28.828" r="4.542" gradientTransform="matrix(.9057 .4238 -.3144 .6719 13.378 3.416)" gradientUnits="userSpaceOnUse"><stop offset=".663" stop-color="#6d4c41"></stop><stop offset="1" stop-color="#6d4c41" stop-opacity="0"></stop></radialGradient><path d="M73.06 55.89c2.81-4.27-3.42-5.86-3.42-5.86h-.01c1.08 1.35 1.58 2.52.94 3.68c-.79 1.45-3.16 1.66-3.16 1.66s3.23 2.87 5.65.52z" fill="url(#IconifyId17ecdb2904d178eab8259)"></path></g><g><path d="M93.46 74.12c-3.87 0-7-3.13-7-7V60.7h14v6.42c0 3.87-3.14 7-7 7z" fill="#e59600"></path></g><g><path d="M111.48 34.74H75.43c-3.89 0-7.07 3.39-7.07 7.53s3.18 7.53 7.07 7.53h36.05c3.89 0 7.07-3.39 7.07-7.53s-3.18-7.53-7.07-7.53z" fill="#e59600"></path></g><path d="M93.46 8.11c-11.48 0-22.11 12.28-22.11 29.94c0 17.57 10.95 26.26 22.11 26.26s22.11-8.69 22.11-26.26c0-17.66-10.63-29.94-22.11-29.94z" fill="#ffca28"></path><path d="M99.01 51.54c-2.1 1.25-8.99 1.25-11.09 0c-1.21-.72-2.44.38-1.94 1.48c.49 1.08 4.25 3.58 7.5 3.58s6.96-2.5 7.45-3.58c.5-1.1-.71-2.2-1.92-1.48z" fill="#795548"></path><path d="M96 46.2a.537.537 0 0 0-.21-.05h-4.67c-.07.01-.14.03-.21.05c-.42.17-.66.61-.46 1.08c.2.47 1.13 1.78 3 1.78s2.8-1.31 3-1.78c.21-.47-.02-.91-.45-1.08z" fill="#e59600"></path><g fill="#404040"><ellipse cx="82.62" cy="40.17" rx="3.25" ry="3.37"></ellipse><ellipse cx="104.3" cy="40.17" rx="3.25" ry="3.37"></ellipse></g><g fill="#6d4c41"><path d="M99.53 34.45c.62-.83 2.07-2.03 4.87-2.03c2.8 0 4.25 1.2 4.87 2.03c.28.37.21.79.02 1.04c-.18.24-.7.46-1.28.26c-.58-.2-1.71-.78-3.6-.8c-1.89.01-3.03.6-3.6.8c-.58.2-1.1-.02-1.28-.26a.823.823 0 0 1 0-1.04z"></path><path d="M77.65 34.45c.62-.83 2.07-2.03 4.87-2.03s4.25 1.2 4.87 2.03c.28.37.21.79.02 1.04c-.18.24-.7.46-1.28.26c-.58-.2-1.71-.78-3.6-.8c-1.89.01-3.03.6-3.6.8c-.58.2-1.1-.02-1.28-.26a.85.85 0 0 1 0-1.04z"></path></g><g><path d="M119.76 17.8c-1.6-2.43-5.19-5.67-8.41-5.89c-.52-3.1-3.83-5.72-7.04-6.74c-8.69-2.75-14.34.33-17.38 1.99c-.63.34-4.7 2.6-7.56.98c-1.79-1.02-1.75-3.76-1.75-3.76s-5.6 2.13-3.68 8.07c-1.92.08-4.44.89-5.78 3.59c-1.59 3.21-1.02 5.9-.56 7.19c-1.65 1.4-3.73 4.39-2.31 8.27c1.07 2.92 5.36 4.26 5.36 4.26c-.3 5.26.68 8.49 1.2 9.8c.09.23.42.21.48-.03c.65-2.6 2.86-11.68 2.64-13.26c0 0 7.45-1.48 14.55-6.71c1.45-1.06 3.01-1.97 4.68-2.64c8.92-3.55 10.79 2.51 10.79 2.51s6.18-1.19 8.05 7.4c.7 3.22 1.18 8.37 1.57 11.97c.03.26.37.31.48.07c.63-1.43 1.87-4.27 2.17-7.16c.1-1.02 2.85-2.36 4.03-6.73c1.57-5.83-.37-11.43-1.53-13.18z" fill="#543930"></path><radialGradient id="IconifyId17ecdb2904d178eab8260" cx="71.082" cy="-53.66" r="23.385" gradientTransform="matrix(.3076 .9515 -.706 .2282 45.534 -25.818)" gradientUnits="userSpaceOnUse"><stop offset=".699" stop-color="#6d4c41" stop-opacity="0"></stop><stop offset="1" stop-color="#6d4c41"></stop></radialGradient><path d="M117.23 37.74c.1-1.02 2.85-2.36 4.03-6.73c.13-.46.23-.94.33-1.41c.96-5.31-.76-10.18-1.83-11.8c-1.48-2.24-4.66-5.18-7.68-5.78c-.26-.03-.52-.06-.76-.08c0 0 .21 1.41-.36 2.54c-.74 1.46-2.24 1.8-2.24 1.8c7.87 7.85 7.3 14.43 8.51 21.46z" fill="url(#IconifyId17ecdb2904d178eab8260)"></path><radialGradient id="IconifyId17ecdb2904d178eab8261" cx="76.056" cy="-17.093" r="6.131" gradientTransform="matrix(.8813 .4726 -.5603 1.045 5.881 -14.007)" gradientUnits="userSpaceOnUse"><stop offset=".58" stop-color="#6d4c41"></stop><stop offset="1" stop-color="#6d4c41" stop-opacity="0"></stop></radialGradient><path d="M88.83 6.17c-.72.35-1.35.69-1.9.99c-.63.34-4.7 2.6-7.56.98c-1.75-1-1.75-3.66-1.75-3.76c-.81 1.03-3.25 8.39 3.89 8.88c3.08.21 4.98-2.47 6.1-4.75c.41-.82 1.05-2.02 1.22-2.34z" fill="url(#IconifyId17ecdb2904d178eab8261)"></path><radialGradient id="IconifyId17ecdb2904d178eab8262" cx="109.06" cy="129.303" r="18.849" gradientTransform="matrix(-.9378 -.3944 .2182 -.5285 170.255 126.553)" gradientUnits="userSpaceOnUse"><stop offset=".699" stop-color="#6d4c41" stop-opacity="0"></stop><stop offset="1" stop-color="#6d4c41"></stop></radialGradient><path d="M103.41 4.91c4.8 1.3 7.15 3.74 7.93 7.01c.23.96.5 9.9-16.56-.26c-6.35-3.78-4.61-6.14-3.87-6.41c2.9-1.06 7.11-1.8 12.5-.34z" fill="url(#IconifyId17ecdb2904d178eab8262)"></path><radialGradient id="IconifyId17ecdb2904d178eab8263" cx="80.023" cy="9.361" r="5.628" gradientTransform="matrix(1 0 0 1.2233 0 -1.784)" gradientUnits="userSpaceOnUse"><stop offset=".702" stop-color="#6d4c41" stop-opacity="0"></stop><stop offset="1" stop-color="#6d4c41"></stop></radialGradient><path d="M77.6 4.39c-.01 0-.02.01-.04.02c-.61.26-5.41 2.48-3.62 8.04l5.11.82c-4.52-4.58-1.43-8.89-1.43-8.89s-.01 0-.02.01z" fill="url(#IconifyId17ecdb2904d178eab8263)"></path><radialGradient id="IconifyId17ecdb2904d178eab8264" cx="-24.576" cy="23.777" r="10.555" gradientTransform="matrix(-.9657 -.2598 .2432 -.9037 49.732 34.705)" gradientUnits="userSpaceOnUse"><stop offset=".66" stop-color="#6d4c41" stop-opacity="0"></stop><stop offset="1" stop-color="#6d4c41"></stop></radialGradient><path d="M77.1 12.96l-3.15-.51c-.12 0-.54.04-.77.07c-1.78.25-3.87 1.17-5 3.52c-1.22 2.53-1.19 4.71-.86 6.16c.1.49.29 1.03.29 1.03s1.57-1.48 5.28-1.58l4.21-8.69z" fill="url(#IconifyId17ecdb2904d178eab8264)"></path><radialGradient id="IconifyId17ecdb2904d178eab8265" cx="77.43" cy="22.296" r="11.082" gradientTransform="matrix(.9907 .1363 -.1915 1.3921 4.307 -11.8)" gradientUnits="userSpaceOnUse"><stop offset=".598" stop-color="#6d4c41" stop-opacity="0"></stop><stop offset="1" stop-color="#6d4c41"></stop></radialGradient><path d="M67.45 23.35c-1.55 1.38-3.65 4.46-2.11 8.27c1.16 2.88 5.31 4.13 5.31 4.13c0 .01.83.26 1.26.26l.97-14.37c-1.99 0-3.9.6-5.13 1.45c.01.04-.31.24-.3.26z" fill="url(#IconifyId17ecdb2904d178eab8265)"></path></g><radialGradient id="IconifyId17ecdb2904d178eab8266" cx="64" cy="33.024" r="27.104" gradientTransform="matrix(1 0 0 -1.4568 0 143.084)" gradientUnits="userSpaceOnUse"><stop offset=".594" stop-color="#212121"></stop><stop offset="1" stop-color="#616161" stop-opacity=".05"></stop></radialGradient><path d="M64.02 88.4c0-12.28-9.67-19.73-21.55-21.78c-1.84-.32-3.47-.52-5.47-.64V124h54V65.95c-2 .11-3.93.33-5.9.67c-11.88 2.05-21.08 9.5-21.08 21.78z" opacity=".4" fill="url(#IconifyId17ecdb2904d178eab8266)"></path><g><linearGradient id="IconifyId17ecdb2904d178eab8267" gradientUnits="userSpaceOnUse" x1="63.999" y1="113.315" x2="63.999" y2="123.431"><stop offset=".313" stop-color="#a900fe"></stop><stop offset="1" stop-color="#9000d9"></stop></linearGradient><path d="M85.57 121.98c0-9.84-12.51-13.14-16.87-13.14h-9.38c-4.35 0-16.88 3.3-16.88 13.14c0 0-.01.79-.03 2.02h43.18l-.02-2.02z" fill="url(#IconifyId17ecdb2904d178eab8267)"></path></g><g><path d="M64 116.3a4.69 4.69 0 0 1-4.69-4.69v-3.6h9.39v3.6a4.705 4.705 0 0 1-4.7 4.69z" fill="#e59600"></path></g><g><path d="M78.74 89.21H49.26c-3.18 0-5.78 2.5-5.78 5.56s2.6 5.56 5.78 5.56h29.47c3.18 0 5.78-2.5 5.78-5.56s-2.59-5.56-5.77-5.56z" fill="#e59600"></path></g><path d="M64 66.27c-9.33 0-17.96 9.8-17.96 23.9c0 14.02 8.9 20.96 17.96 20.96s17.96-6.93 17.96-20.96c0-14.11-8.63-23.9-17.96-23.9z" fill="#ffca28"></path><path d="M68.32 100.89c-1.64.97-7 .97-8.64 0c-.94-.56-1.9.3-1.51 1.15c.38.84 3.31 2.79 5.84 2.79s5.42-1.95 5.8-2.79c.4-.86-.55-1.71-1.49-1.15z" fill="#795548"></path><path d="M65.98 96.72a.471.471 0 0 0-.17-.04h-3.63c-.06.01-.11.02-.17.04c-.33.13-.51.47-.35.84c.16.36.88 1.38 2.34 1.38s2.18-1.02 2.34-1.38c.15-.37-.03-.71-.36-.84z" fill="#e59600"></path><g fill="#404040"><ellipse cx="55.46" cy="94.07" rx="2.53" ry="2.62"></ellipse><ellipse cx="72.54" cy="94.07" rx="2.53" ry="2.62"></ellipse></g><g fill="#6d4c41"><path d="M51.5 89.41c.1-.13.13-.21.31-.39c.4-.42 1.18-.92 1.94-1.18c.73-.25 1.07-.25 1.62-.25c.85 0 1.37.18 1.62.25c.35.12.68.28 1.01.46c.55.33 1.74 1.14 1.38 1.87c-.4.81-1.01.51-1.56.3c-.24-.07-1.32-.5-2.46-.5c-.62 0-.88.07-1.04.09c-.73.12-1.28.35-1.38.38c-.38.15-.65.37-1.08.2c-.46-.2-.65-.8-.36-1.23z"></path><path d="M76.5 89.41c-.1-.13-.13-.21-.31-.39c-.39-.42-1.18-.92-1.94-1.18c-.73-.25-1.07-.25-1.62-.25c-.85 0-1.37.18-1.62.25c-.35.12-.68.28-1.01.46c-.55.33-1.74 1.14-1.38 1.87c.4.81 1.01.51 1.56.3c.24-.07 1.32-.5 2.46-.5c.62 0 .88.07 1.04.09c.73.12 1.28.35 1.38.38c.38.15.65.37 1.07.2c.47-.2.66-.8.37-1.23z"></path></g><g><path d="M64.11 64.16c-19.93 0-21.32 16.28-20.51 23.4c.71 6.29 3.99 7.84 3.99 7.84s-.65-5.49.4-9.47c.83-3.16 2.8-5.5 2.8-5.5s3.6 3.12 10.3 5.15c3.23.98 7.37.49 7.37.49l-2.32-4.1s3.8 2.79 6.16 3.32c3.03.68 5.25.39 5.25.39l-1.11-4.33s1.93 1.26 3.37 4.71c1.44 3.45.55 9.34.55 9.34s3.46-1.54 4.02-7.84c.69-7.89-.43-23.4-20.27-23.4z" fill="#543930"></path><radialGradient id="IconifyId17ecdb2904d178eab8268" cx="16.503" cy="33.26" r="23.081" gradientTransform="matrix(0 1.1138 -.9718 0 96.246 67.636)" gradientUnits="userSpaceOnUse"><stop offset=".794" stop-color="#6d4c41" stop-opacity="0"></stop><stop offset="1" stop-color="#6d4c41"></stop></radialGradient><path d="M64.11 64.16c-19.93 0-21.32 16.28-20.51 23.4c.71 6.29 3.99 7.84 3.99 7.84s-.65-5.49.4-9.47c.83-3.16 2.8-5.5 2.8-5.5s3.6 3.12 10.3 5.15c3.23.98 7.37.49 7.37.49l-2.32-4.1s3.8 2.79 6.16 3.32c3.03.68 5.25.39 5.25.39l-1.11-4.33s1.93 1.26 3.37 4.71c1.44 3.45.55 9.34.55 9.34s3.46-1.54 4.02-7.84c.69-7.89-.43-23.4-20.27-23.4z" fill="url(#IconifyId17ecdb2904d178eab8268)"></path></g><g><linearGradient id="IconifyId17ecdb2904d178eab8269" gradientUnits="userSpaceOnUse" x1="120.633" y1="3.336" x2="119.46" y2="30.521" gradientTransform="matrix(1 0 0 -1 0 128)"><stop offset=".604" stop-color="#ffca28"></stop><stop offset="1" stop-color="#ffb300"></stop></linearGradient><path fill="url(#IconifyId17ecdb2904d178eab8269)" d="M116 96v28h8V96z"></path></g></svg>