<?xml version="1.0" encoding="iso-8859-1"?>
<!-- Generator: Adobe Illustrator 19.0.0, SVG Export Plug-In . SVG Version: 6.00 Build 0)  -->
<svg version="1.1" id="Layer_1" xmlns="http://www.w3.org/2000/svg" xmlns:xlink="http://www.w3.org/1999/xlink" x="0px" y="0px"
	 viewBox="0 0 511.98 511.98" style="enable-background:new 0 0 511.98 511.98;" xml:space="preserve">
<path style="fill:#E2A437;" d="M350.594,382.795H54.715c0,0-77.106-359.26,147.947-359.26
	C427.699,23.535,350.594,382.795,350.594,382.795z"/>
<path style="fill:#AC92EB;" d="M368.718,374.357l-1.656-0.469c-24.029-6.437-32.154-12.655-42.857-16.718
	c-37.951-14.468-47.826-24.874-50.357-29.811c-0.094-0.188-0.156-0.375-0.25-0.562l-0.312-44.093l-70.623-1l-70.653,1l-0.312,44.093
	c-0.078,0.188-0.156,0.375-0.234,0.562c-2.531,4.937-12.406,15.343-50.357,29.811c-10.687,4.062-18.812,10.281-42.858,16.718
	l-1.641,0.469C14.734,381.607,0,401.886,0,424.793v63.623h202.664h202.649v-63.623C405.31,401.887,390.592,381.607,368.718,374.357z
	"/>
<path style="fill:#CCD1D9;" d="M368.718,374.357l-1.656-0.469c-24.029-6.437-32.154-12.655-42.857-16.718
	c-37.951-14.468-47.826-24.874-50.357-29.811c-0.094-0.188-0.156-0.375-0.25-0.562l-0.312-44.093l-70.623-1l-70.653,1l-0.312,44.093
	c-0.078,0.188-0.156,0.375-0.234,0.562c-2.531,4.937-12.406,15.343-50.357,29.811c-10.687,4.062-18.812,10.281-42.858,16.718
	l-1.641,0.469C14.734,381.607,0,401.886,0,424.793v63.623h202.664h202.649v-63.623C405.31,401.887,390.592,381.607,368.718,374.357z
	"/>
<path style="fill:#DBAFA5;" d="M273.846,327.36c-0.094-0.188-0.156-0.375-0.25-0.562l-0.312-44.093l-70.623-1l-70.653,1
	l-0.312,44.093c-0.078,0.188-0.156,0.375-0.234,0.562c-1.781,3.468-7.188,9.655-23.468,18.062
	c13.25,17.78,49.108,54.122,124.12,60.871l70.607-58.215C282.206,338.328,275.8,331.172,273.846,327.36z"/>
<path style="fill:#EAC6BB;" d="M327.563,197.028c0,81.146-77.372,155.83-124.902,155.83c-47.529,0-124.901-74.685-124.901-155.83
	c0-81.153,55.919-134.697,124.901-134.697C271.628,62.331,327.563,115.875,327.563,197.028z"/>
<path style="fill:#F6BB42;" d="M230.942,100.72l128.339,87.59c-11.437-84.575-50.311-164.775-156.62-164.775L230.942,100.72z"/>
<polygon style="fill:#FFFFFF;" points="320.673,317.266 287.987,402.605 346.063,403.605 340.907,386.076 334.266,363.514 "/>
<path style="fill:#E6E9ED;" d="M368.718,374.357l-1.656-0.469c-24.029-6.437-32.154-12.655-42.857-16.718
	c-22.468-8.562-35.107-15.718-42.186-21.155c-21.641,24.218-103.09,105.09-262.193,152.4h182.836h202.649v-63.623
	C405.31,401.887,390.592,381.607,368.718,374.357z"/>
<path style="fill:#ED5564;" d="M77.76,197.028c0,8.344,0.828,16.609,2.359,24.749h245.084c1.531-8.14,2.359-16.405,2.359-24.749
	c0-6.14-0.328-12.108-0.953-17.92H78.714C78.089,184.92,77.76,190.888,77.76,197.028z"/>
<path style="fill:#DA4453;" d="M394.654,488.447c-5.891,0-10.672-4.781-10.672-10.688V285.767c0-5.875,4.781-10.656,10.672-10.656
	s10.656,4.781,10.656,10.656v191.992C405.31,483.666,400.545,488.447,394.654,488.447z"/>
<path style="fill:#434A54;" d="M458.652,488.447H330.657c-5.891,0-10.672-4.781-10.672-10.688c0-5.875,4.781-10.656,10.672-10.656
	h127.995c5.891,0,10.655,4.781,10.655,10.656C469.307,483.666,464.543,488.447,458.652,488.447z"/>
<g>
	<path style="fill:#CCD1D9;" d="M330.11,303.735c-0.031-0.062-0.062-0.125-0.078-0.219c-0.062-0.156-0.141-0.344-0.219-0.531
		c-0.062-0.156-0.125-0.312-0.203-0.469s-0.156-0.281-0.234-0.438c-0.078-0.188-0.172-0.344-0.266-0.5
		c-0.078-0.125-0.172-0.25-0.25-0.375c-0.109-0.156-0.219-0.312-0.328-0.469c-0.094-0.125-0.188-0.25-0.281-0.375
		c-0.125-0.156-0.25-0.281-0.375-0.438c-0.109-0.125-0.234-0.219-0.344-0.344c-0.125-0.125-0.25-0.25-0.375-0.375
		c-0.141-0.125-0.281-0.219-0.422-0.344c-0.125-0.094-0.234-0.188-0.359-0.281c-0.156-0.125-0.312-0.219-0.469-0.344
		c-0.141-0.094-0.266-0.156-0.406-0.25c-0.156-0.094-0.312-0.188-0.469-0.281c-0.156-0.062-0.312-0.156-0.469-0.219
		c-0.141-0.062-0.297-0.125-0.438-0.188c-0.188-0.094-0.375-0.156-0.562-0.219c-0.062-0.031-0.125-0.062-0.203-0.094
		s-0.141-0.031-0.219-0.062c-0.203-0.062-0.391-0.125-0.594-0.156c-0.156-0.031-0.297-0.062-0.453-0.094
		c-0.188-0.062-0.375-0.094-0.562-0.125c-0.172,0-0.328-0.031-0.484-0.062c-0.188,0-0.359,0-0.531-0.031c-0.188,0-0.359,0-0.531,0
		s-0.328,0-0.5,0c-0.188,0-0.375,0.031-0.562,0.031c-0.156,0.031-0.297,0.062-0.453,0.062c-0.203,0.031-0.406,0.062-0.609,0.125
		c-0.141,0.031-0.266,0.062-0.406,0.094c-0.219,0.031-0.422,0.094-0.625,0.156c-0.078,0.031-0.141,0.031-0.219,0.062
		c-0.062,0.031-0.125,0.062-0.188,0.094c-0.188,0.062-0.391,0.125-0.578,0.219c-0.141,0.062-0.281,0.125-0.422,0.188
		c-0.172,0.062-0.328,0.156-0.484,0.25c-0.156,0.062-0.312,0.156-0.469,0.25c-0.125,0.094-0.266,0.156-0.406,0.25
		c-0.156,0.125-0.312,0.219-0.453,0.344c-0.125,0.094-0.249,0.188-0.374,0.281c-0.141,0.125-0.281,0.219-0.422,0.344
		c-0.125,0.125-0.25,0.25-0.375,0.375c-0.109,0.125-0.219,0.219-0.344,0.344c-0.125,0.156-0.25,0.312-0.359,0.438
		c-0.094,0.125-0.188,0.25-0.281,0.344c-0.125,0.188-0.234,0.344-0.344,0.5c-0.078,0.125-0.156,0.25-0.234,0.375
		c-0.094,0.156-0.188,0.344-0.281,0.5c-0.078,0.156-0.156,0.281-0.234,0.438c-0.062,0.156-0.141,0.312-0.203,0.469
		c-0.062,0.188-0.141,0.344-0.203,0.531c-0.031,0.094-0.062,0.156-0.078,0.219l-31.999,95.996
		c-1.875,5.593,1.156,11.624,6.734,13.499c1.125,0.375,2.266,0.531,3.375,0.531c4.469,0,8.641-2.812,10.125-7.281l21.873-65.652
		l21.891,65.652c1.484,4.469,5.641,7.281,10.109,7.281c1.125,0,2.266-0.156,3.374-0.531c5.594-1.875,8.609-7.906,6.75-13.499
		L330.11,303.735z"/>
	<path style="fill:#CCD1D9;" d="M511.431,399.731l-31.999-95.996c-0.016-0.062-0.047-0.125-0.078-0.219
		c-0.062-0.156-0.141-0.344-0.219-0.531c-0.062-0.156-0.125-0.312-0.203-0.469c-0.062-0.156-0.141-0.281-0.219-0.438
		c-0.094-0.188-0.188-0.344-0.281-0.5c-0.078-0.125-0.156-0.25-0.25-0.375c-0.109-0.156-0.219-0.312-0.328-0.469
		c-0.094-0.125-0.188-0.25-0.281-0.375c-0.125-0.156-0.25-0.281-0.375-0.438c-0.109-0.125-0.219-0.219-0.344-0.344
		s-0.234-0.25-0.375-0.375c-0.125-0.125-0.266-0.219-0.422-0.344c-0.109-0.094-0.234-0.188-0.359-0.281
		c-0.156-0.125-0.312-0.219-0.469-0.344c-0.125-0.094-0.266-0.156-0.391-0.25c-0.156-0.094-0.312-0.188-0.484-0.281
		c-0.156-0.062-0.297-0.156-0.453-0.219s-0.297-0.125-0.453-0.188c-0.188-0.094-0.375-0.156-0.562-0.219
		c-0.062-0.031-0.125-0.062-0.203-0.094c-0.062-0.031-0.141-0.031-0.219-0.062c-0.188-0.062-0.391-0.125-0.594-0.156
		c-0.156-0.031-0.297-0.062-0.438-0.094c-0.188-0.062-0.391-0.094-0.578-0.125c-0.156,0-0.328-0.031-0.484-0.062
		c-0.172,0-0.359,0-0.531-0.031c-0.188,0-0.359,0-0.531,0c-0.156,0-0.328,0-0.5,0c-0.188,0.031-0.375,0.031-0.562,0.031
		c-0.141,0.031-0.297,0.062-0.453,0.062c-0.203,0.031-0.406,0.062-0.594,0.125c-0.141,0.031-0.281,0.062-0.422,0.094
		c-0.218,0.031-0.421,0.094-0.624,0.156c-0.062,0.031-0.141,0.031-0.203,0.062c-0.078,0.031-0.141,0.062-0.203,0.094
		c-0.188,0.062-0.375,0.125-0.562,0.219c-0.156,0.062-0.297,0.125-0.438,0.188c-0.172,0.062-0.312,0.156-0.469,0.25
		c-0.172,0.062-0.328,0.156-0.484,0.25c-0.125,0.094-0.266,0.156-0.391,0.25c-0.156,0.125-0.312,0.219-0.469,0.344
		c-0.125,0.094-0.25,0.188-0.375,0.281c-0.141,0.125-0.281,0.219-0.406,0.344c-0.141,0.125-0.25,0.25-0.375,0.375
		s-0.234,0.219-0.344,0.344c-0.125,0.156-0.25,0.281-0.375,0.438c-0.094,0.125-0.188,0.25-0.281,0.375
		c-0.109,0.156-0.219,0.312-0.328,0.469c-0.094,0.125-0.172,0.25-0.25,0.375c-0.094,0.156-0.188,0.312-0.281,0.5
		c-0.078,0.156-0.156,0.281-0.219,0.438c-0.078,0.156-0.141,0.312-0.203,0.469c-0.078,0.188-0.156,0.375-0.219,0.531
		c-0.031,0.094-0.062,0.156-0.078,0.219l-32,95.996c-1.859,5.593,1.156,11.624,6.75,13.499c1.109,0.375,2.25,0.531,3.375,0.531
		c4.453,0,8.625-2.812,10.109-7.281l21.874-65.652l21.89,65.652c1.484,4.469,5.641,7.281,10.109,7.281
		c1.125,0,2.266-0.156,3.375-0.531C510.275,411.355,513.291,405.324,511.431,399.731z"/>
</g>
<g>
	<path style="fill:#ED5564;" d="M469.307,317.766H319.985c-5.891,0-10.655-4.781-10.655-10.656c0-5.906,4.765-10.656,10.655-10.656
		h149.322c5.906,0,10.672,4.75,10.672,10.656C479.979,312.985,475.214,317.766,469.307,317.766z"/>
	<path style="fill:#ED5564;" d="M319.985,445.761c-23.514,0-42.654-19.124-42.654-42.655h85.325
		C362.656,426.637,343.516,445.761,319.985,445.761z"/>
	<path style="fill:#ED5564;" d="M469.307,445.761c-23.515,0-42.655-19.124-42.655-42.655h85.326
		C511.978,426.637,492.838,445.761,469.307,445.761z"/>
</g>
<path style="fill:#FFCE54;" d="M211.755,138.343c41.467-29.796,77.154-59.123,95.512-74.622
	c-24.077-24.624-57.811-40.187-104.606-40.187c-124.167,0-156.353,109.355-160.274,207.398
	C85.447,219.355,142.258,188.31,211.755,138.343z"/>
<g>
</g>
<g>
</g>
<g>
</g>
<g>
</g>
<g>
</g>
<g>
</g>
<g>
</g>
<g>
</g>
<g>
</g>
<g>
</g>
<g>
</g>
<g>
</g>
<g>
</g>
<g>
</g>
<g>
</g>
</svg>
